<svg xmlns="http://www.w3.org/2000/svg" width="460" height="125" viewBox="-10 0 140 20">
  <style>path {fill: #546d78}</style>
  <g transform="translate(-104.104,-160.861)">
    <path
       d="M 56.294 0.001 C 56.226 0.004 56.157 0.011 56.083 0.021 C 55.544 0.095 55.064 0.402 54.769 0.863 C 52.212 4.861 47.346 6.976 40.308 7.150 C 33.602 7.315 27.717 11.072 25.314 16.718 C 24.563 18.482 24.193 19.801 24.015 20.742 C 23.792 20.793 23.542 20.852 23.265 20.921 C 14.288 23.157 8.927 29.481 8.927 37.839 C 8.927 39.802 9.296 41.756 10.003 43.587 C 7.423 44.723 5.133 46.485 3.419 48.679 C 1.182 51.546 0 54.962 0 58.560 C 0 67.625 7.646 75 17.044 75 L 72.955 75 C 82.353 75 90 67.625 90 58.560 C 90 50.816 84.375 44.224 76.775 42.541 C 77.505 40.686 77.882 38.708 77.882 36.708 C 77.882 27.945 70.736 20.762 61.769 20.294 C 62.779 16.658 62.740 12.827 61.648 8.871 C 60.959 6.371 59.968 4.314 59.257 3.029 C 58.932 2.441 58.596 1.885 58.259 1.376 C 57.817 0.710 57.318 -0.039 56.294 0.001 z M 25.708 33.527 L 63.433 33.527 C 64.491 33.527 65.343 34.379 65.343 35.437 L 65.343 40.152 C 65.343 41.210 64.491 42.062 63.433 42.062 L 25.708 42.062 C 24.650 42.062 23.798 41.210 23.798 40.152 L 23.798 35.437 C 23.798 34.379 24.650 33.527 25.708 33.527 z M 25.708 51.527 L 63.433 51.527 C 64.491 51.527 65.343 52.379 65.343 53.437 L 65.343 58.152 C 65.343 59.210 64.491 60.062 63.433 60.062 L 25.708 60.062 C 24.650 60.062 23.798 59.210 23.798 58.152 L 23.798 53.437 C 23.798 52.379 24.650 51.527 25.708 51.527 z "
       transform="matrix(0.264,0,0,0.264,104.104,160.861)"
    />
    <path d="m 138.096,169.815 q -0.284,-0.234 -0.820,-0.452 -0.535,-0.217 -1.172,-0.217 -0.669,0 -1.155,0.251 -0.468,0.234 -0.770,0.669 -0.301,0.418 -0.435,1.004 -0.133,0.586 -0.133,1.255 0,1.523 0.753,2.361 0.753,0.820 2.009,0.820 0.636,0 1.055,-0.050 0.435,-0.067 0.669,-0.133 z m 0,-5.861 1.557,-0.267 v 12.743 q -0.535,0.150 -1.373,0.301 -0.837,0.150 -1.925,0.150 -1.004,0 -1.808,-0.318 -0.803,-0.318 -1.373,-0.904 -0.569,-0.586 -0.887,-1.423 -0.301,-0.854 -0.301,-1.909 0,-1.004 0.251,-1.842 0.267,-0.837 0.770,-1.440 0.502,-0.602 1.222,-0.937 0.736,-0.334 1.674,-0.334 0.753,0 1.322,0.200 0.586,0.200 0.870,0.385 z"/>
    <path d="m 143.890,176.681 h -1.557 v -8.707 h 1.557 z m -0.787,-10.282 q -0.418,0 -0.720,-0.267 -0.284,-0.284 -0.284,-0.753 0,-0.468 0.284,-0.736 0.301,-0.284 0.720,-0.284 0.418,0 0.703,0.284 0.301,0.267 0.301,0.736 0,0.468 -0.301,0.753 -0.284,0.267 -0.703,0.267 z"/>
    <path d="m 149.785,167.788 q 0.200,0 0.452,0.033 0.267,0.016 0.519,0.067 0.251,0.033 0.452,0.083 0.217,0.033 0.318,0.067 l -0.267,1.356 q -0.184,-0.067 -0.619,-0.150 -0.418,-0.100 -1.088,-0.100 -0.435,0 -0.870,0.100 -0.418,0.083 -0.552,0.117 v 7.318 h -1.557 v -8.339 q 0.552,-0.200 1.373,-0.368 0.820,-0.184 1.842,-0.184 z"/>
    <path d="m 154.490,167.973 h 3.298 v 1.306 h -3.298 v 4.019 q 0,0.653 0.100,1.088 0.100,0.418 0.301,0.669 0.200,0.234 0.502,0.334 0.301,0.100 0.703,0.100 0.703,0 1.121,-0.150 0.435,-0.167 0.602,-0.234 l 0.301,1.289 q -0.234,0.117 -0.820,0.284 -0.586,0.184 -1.339,0.184 -0.887,0 -1.473,-0.217 -0.569,-0.234 -0.921,-0.686 -0.351,-0.452 -0.502,-1.105 -0.133,-0.669 -0.133,-1.540 v -7.770 l 1.557,-0.267 z"/>
    <path d="m 158.744,178.305 q 0.184,0.083 0.468,0.150 0.301,0.083 0.586,0.083 0.921,0 1.440,-0.418 0.519,-0.401 0.937,-1.322 -1.055,-2.009 -1.976,-4.253 -0.904,-2.260 -1.507,-4.571 h 1.674 q 0.184,0.753 0.435,1.624 0.267,0.870 0.586,1.791 0.318,0.921 0.686,1.842 0.368,0.921 0.770,1.775 0.636,-1.758 1.105,-3.483 0.468,-1.724 0.887,-3.550 h 1.607 q -0.602,2.461 -1.339,4.739 -0.736,2.260 -1.590,4.236 -0.334,0.753 -0.703,1.289 -0.351,0.552 -0.787,0.904 -0.435,0.351 -0.988,0.519 -0.535,0.167 -1.222,0.167 -0.184,0 -0.385,-0.033 -0.200,-0.016 -0.401,-0.067 -0.184,-0.033 -0.351,-0.083 -0.150,-0.050 -0.217,-0.083 z"/>
    <path d="m 167.184,170.937 h 4.136 v 1.456 h -4.136 z"/>
    <path d="m 172.610,172.343 q 0,-1.155 0.334,-2.009 0.334,-0.870 0.887,-1.440 0.552,-0.569 1.272,-0.854 0.720,-0.284 1.473,-0.284 1.758,0 2.696,1.105 0.937,1.088 0.937,3.332 0,0.100 0,0.267 0,0.150 -0.016,0.284 h -5.961 q 0.100,1.356 0.787,2.059 0.686,0.703 2.143,0.703 0.820,0 1.373,-0.133 0.569,-0.150 0.854,-0.284 l 0.217,1.306 q -0.284,0.150 -1.004,0.318 -0.703,0.167 -1.607,0.167 -1.138,0 -1.976,-0.334 -0.820,-0.351 -1.356,-0.954 -0.535,-0.602 -0.803,-1.423 -0.251,-0.837 -0.251,-1.825 z m 5.978,-0.854 q 0.016,-1.055 -0.535,-1.724 -0.535,-0.686 -1.490,-0.686 -0.535,0 -0.954,0.217 -0.401,0.200 -0.686,0.535 -0.284,0.334 -0.452,0.770 -0.150,0.435 -0.200,0.887 z"/>
    <path d="m 183.595,172.343 q 0,0.669 0.133,1.255 0.133,0.569 0.435,1.004 0.301,0.418 0.770,0.669 0.485,0.234 1.155,0.234 0.636,0 1.172,-0.217 0.535,-0.217 0.820,-0.452 v -5.492 q -0.234,-0.067 -0.636,-0.117 -0.385,-0.050 -1.088,-0.050 -1.255,0 -2.009,0.820 -0.753,0.820 -0.753,2.344 z m -1.624,0 q 0,-1.055 0.301,-1.892 0.318,-0.854 0.887,-1.440 0.569,-0.586 1.373,-0.904 0.803,-0.318 1.808,-0.318 1.088,0 1.909,0.167 0.837,0.150 1.389,0.284 v 11.538 h -1.557 v -3.483 q -0.284,0.184 -0.870,0.385 -0.569,0.200 -1.322,0.200 -0.937,0 -1.674,-0.334 -0.720,-0.334 -1.222,-0.937 -0.502,-0.602 -0.770,-1.440 -0.251,-0.837 -0.251,-1.825 z"/>
    <path d="m 199.253,176.429 q -0.535,0.133 -1.423,0.284 -0.870,0.150 -2.026,0.150 -1.004,0 -1.691,-0.284 -0.686,-0.301 -1.105,-0.837 -0.418,-0.535 -0.602,-1.255 -0.184,-0.736 -0.184,-1.624 v -4.889 h 1.557 v 4.554 q 0,1.590 0.502,2.277 0.502,0.686 1.691,0.686 0.251,0 0.519,-0.016 0.267,-0.016 0.502,-0.033 0.234,-0.033 0.418,-0.050 0.200,-0.033 0.284,-0.067 v -7.351 h 1.557 z"/>
    <path d="m 204.879,175.559 q 0.552,0 0.971,-0.016 0.435,-0.033 0.720,-0.100 v -2.595 q -0.167,-0.083 -0.552,-0.133 -0.368,-0.067 -0.904,-0.067 -0.351,0 -0.753,0.050 -0.385,0.050 -0.720,0.217 -0.318,0.150 -0.535,0.435 -0.217,0.267 -0.217,0.720 0,0.837 0.535,1.172 0.535,0.318 1.456,0.318 z m -0.133,-7.803 q 0.937,0 1.574,0.251 0.653,0.234 1.038,0.686 0.401,0.435 0.569,1.055 0.167,0.602 0.167,1.339 v 5.442 q -0.200,0.033 -0.569,0.100 -0.351,0.050 -0.803,0.100 -0.452,0.050 -0.988,0.083 -0.519,0.050 -1.038,0.050 -0.736,0 -1.356,-0.150 -0.619,-0.150 -1.071,-0.468 -0.452,-0.334 -0.703,-0.870 -0.251,-0.535 -0.251,-1.289 0,-0.720 0.284,-1.239 0.301,-0.519 0.803,-0.837 0.502,-0.318 1.172,-0.468 0.669,-0.150 1.406,-0.150 0.234,0 0.485,0.033 0.251,0.016 0.468,0.067 0.234,0.033 0.401,0.067 0.167,0.033 0.234,0.050 v -0.435 q 0,-0.385 -0.083,-0.753 -0.083,-0.385 -0.301,-0.669 -0.217,-0.301 -0.602,-0.468 -0.368,-0.184 -0.971,-0.184 -0.770,0 -1.356,0.117 -0.569,0.100 -0.854,0.217 l -0.184,-1.289 q 0.301,-0.133 1.004,-0.251 0.703,-0.133 1.523,-0.133 z"/>
    <path d="m 213.286,176.848 q -1.440,-0.033 -2.043,-0.619 -0.602,-0.586 -0.602,-1.825 v -10.449 l 1.557,-0.267 v 10.466 q 0,0.385 0.067,0.636 0.067,0.251 0.217,0.401 0.150,0.150 0.401,0.234 0.251,0.067 0.619,0.117 z"/>
    <path d="m 217.271,175.559 q 0.954,0 1.406,-0.251 0.468,-0.251 0.468,-0.803 0,-0.569 -0.452,-0.904 -0.452,-0.334 -1.490,-0.753 -0.502,-0.200 -0.971,-0.401 -0.452,-0.217 -0.787,-0.502 -0.334,-0.284 -0.535,-0.686 -0.200,-0.401 -0.200,-0.988 0,-1.155 0.854,-1.825 0.854,-0.686 2.327,-0.686 0.368,0 0.736,0.050 0.368,0.033 0.686,0.100 0.318,0.050 0.552,0.117 0.251,0.067 0.385,0.117 l -0.284,1.339 q -0.251,-0.133 -0.787,-0.267 -0.535,-0.150 -1.289,-0.150 -0.653,0 -1.138,0.267 -0.485,0.251 -0.485,0.803 0,0.284 0.100,0.502 0.117,0.217 0.334,0.401 0.234,0.167 0.569,0.318 0.334,0.150 0.803,0.318 0.619,0.234 1.105,0.468 0.485,0.217 0.820,0.519 0.351,0.301 0.535,0.736 0.184,0.418 0.184,1.038 0,1.205 -0.904,1.825 -0.887,0.619 -2.545,0.619 -1.155,0 -1.808,-0.200 -0.653,-0.184 -0.887,-0.284 l 0.284,-1.339 q 0.267,0.100 0.854,0.301 0.586,0.200 1.557,0.200 z"/>
  </g>
</svg>
