<svg xmlns="http://www.w3.org/2000/svg" width="32" height="32" viewBox="0 0 32 32">
  <g transform="translate(-104.036,-159.067)">
    <path style="fill:#ffffff" d="m 124.019,161.846 c -0.024,0 -0.048,0.004 -0.074,0.007 -0.190,0.026 -0.359,0.134 -0.463,0.296 -0.901,1.409 -2.617,2.155 -5.098,2.216 -2.364,0.058 -4.439,1.382 -5.286,3.373 -0.264,0.621 -0.395,1.087 -0.457,1.418 -0.078,0.018 -0.166,0.039 -0.264,0.063 -3.165,0.788 -5.055,3.018 -5.055,5.965 0,0.692 0.130,1.380 0.379,2.026 -0.909,0.400 -1.717,1.021 -2.321,1.795 -0.789,1.010 -1.205,2.215 -1.205,3.483 0,3.196 2.696,5.796 6.009,5.796 h 19.713 c 3.313,0 6.009,-2.600 6.009,-5.796 0,-2.730 -1.983,-5.054 -4.662,-5.648 0.257,-0.653 0.390,-1.351 0.390,-2.056 0,-3.090 -2.519,-5.622 -5.681,-5.787 0.356,-1.282 0.342,-2.632 -0.042,-4.027 -0.243,-0.881 -0.592,-1.606 -0.842,-2.059 -0.114,-0.207 -0.233,-0.403 -0.351,-0.582 -0.155,-0.234 -0.331,-0.499 -0.692,-0.484 z m -10.784,11.820 h 13.301 c 0.373,0 0.673,0.300 0.673,0.673 v 1.662 c 0,0.373 -0.300,0.673 -0.673,0.673 h -13.301 c -0.373,0 -0.673,-0.300 -0.673,-0.673 v -1.662 c 0,-0.373 0.300,-0.673 0.673,-0.673 z m 0,6.346 h 13.301 c 0.373,0 0.673,0.300 0.673,0.673 v 1.662 c 0,0.373 -0.300,0.673 -0.673,0.673 h -13.301 c -0.373,0 -0.673,-0.300 -0.673,-0.673 v -1.662 c 0,-0.373 0.300,-0.673 0.673,-0.673 z" />
  </g>
</svg>
